<svg xmlns="http://www.w3.org/2000/svg" viewBox="0 0 24 24" fill="none" aria-label="Fale com o Porteiro"><path d="M22 16.92v3a2 2 0 01-2.18 2 19.79 19.79 0 01-8.63-3.07 19.5 19.5 0 01-6-6 19.79 19.79 0 01-3.07-8.67A2 2 0 014.11 2h3a2 2 0 012 1.72c.127.96.361 1.903.7 2.81a2 2 0 01-.45 2.11L8.09 9.91a16 16 0 006 6l1.27-1.27a2 2 0 012.11-.45c.907.339 1.85.573 2.81.7A2 2 0 0122 16.92z" stroke="#81D8D0" stroke-width="1.5" stroke-linejoin="round"/><path d="M14 2c1.5 0 3 .6 4.1 1.6M14 6a4.4 4.4 0 013 1.3" stroke="#81D8D0" stroke-width="1.5" stroke-linecap="round"/></svg>