<svg width="91" height="87" viewBox="0 0 91 87" fill="none" xmlns="http://www.w3.org/2000/svg">
<path d="M73.8183 0C88.4042 0.000142531 97.6013 15.7588 90.8183 28.6758L90.4814 29.2891L62.6093 78.293H62.5507C54.7621 90.2459 37.0731 89.8933 29.871 77.2324L2.60342 29.2891C-1.10106 22.7839 -0.625882 15.4398 2.60147 9.75879C5.34232 4.93859 9.43092 2.49854 12.8085 1.27441C16.1641 0.0583528 18.9221 5.44624e-05 19.2665 0H73.8183ZM31.0165 29.6465C29.8218 29.5972 28.1735 29.7114 26.371 30.3604C22.9639 31.5873 18.5514 34.8959 15.7489 43.916L33.4921 75.1113C39.2924 85.3074 53.7786 85.3074 59.579 75.1113L60.1815 74.0508H60.1952L67.5282 61.1562C59.3358 63.5864 53.8044 62.0838 50.1855 59.2178C48.0906 57.5585 46.8025 55.5641 46.0399 54.0098C45.7995 53.5197 45.6096 53.0671 45.4599 52.6748L32.454 29.8018C32.437 29.7986 32.4194 29.7942 32.4013 29.791C32.0873 29.7357 31.6118 29.6711 31.0165 29.6465ZM59.5702 4.24316C60.6159 5.46973 61.73 6.96583 62.6855 8.68164C64.0919 11.2072 65.2061 14.2904 65.1864 17.7217C65.1721 20.2117 64.561 22.7948 63.1474 25.3857H63.1552L49.0185 50.248L49.0634 50.2383C49.0667 50.2521 49.0742 50.2796 49.0849 50.3193C49.1066 50.3999 49.1431 50.5315 49.1991 50.7021C49.3117 51.0445 49.4982 51.5414 49.7812 52.1182C50.351 53.2798 51.2863 54.7077 52.7577 55.873C55.4969 58.0423 60.7627 59.7998 70.7675 55.4619L86.8622 27.168C92.6621 16.9718 85.4193 4.24331 73.8183 4.24316H59.5702ZM46.5487 46.1025L55.9159 29.6289H37.1825L46.5487 46.1025ZM18.8564 4.26172C18.593 4.27984 18.2176 4.31439 17.7577 4.38086C16.8341 4.51436 15.5852 4.77387 14.2148 5.27051C11.4758 6.26317 8.33059 8.17143 6.22256 11.8779C3.76107 16.211 3.3474 21.7189 5.95987 26.6875L6.22256 27.166L13.0263 39.1289C16.1941 31.4936 20.7364 27.8877 24.9716 26.3623C26.8139 25.6989 28.5325 25.4548 29.954 25.4053L29.9433 25.3857H58.1444C60.2534 22.621 60.9933 20.0263 61.0067 17.6973C61.021 15.2194 60.2146 12.8657 59.0468 10.7686C57.8794 8.67242 56.3971 6.91706 55.1864 5.6748C54.5853 5.05802 54.0606 4.57742 53.6923 4.25586C53.6874 4.25158 53.6825 4.24738 53.6776 4.24316H19.2665C19.2571 4.24326 19.112 4.24415 18.8564 4.26172Z" fill="black"/>
</svg>