<svg width="584" height="87" viewBox="0 0 584 87" fill="none" xmlns="http://www.w3.org/2000/svg">
<path d="M73.8183 0C88.4042 0.000142531 97.6013 15.7588 90.8183 28.6758L90.4814 29.2891L62.6093 78.293H62.5507C54.7621 90.2459 37.0731 89.8933 29.871 77.2324L2.60342 29.2891C-1.10106 22.7839 -0.625882 15.4398 2.60147 9.75879C5.34232 4.93859 9.43092 2.49854 12.8085 1.27441C16.1641 0.0583528 18.9221 5.44624e-05 19.2665 0H73.8183ZM31.0165 29.6465C29.8218 29.5972 28.1735 29.7114 26.371 30.3604C22.9639 31.5873 18.5514 34.8959 15.7489 43.916L33.4921 75.1113C39.2924 85.3074 53.7786 85.3074 59.579 75.1113L60.1815 74.0508H60.1952L67.5282 61.1562C59.3358 63.5864 53.8044 62.0838 50.1855 59.2178C48.0906 57.5585 46.8025 55.5641 46.0399 54.0098C45.7995 53.5197 45.6096 53.0671 45.4599 52.6748L32.454 29.8018C32.437 29.7986 32.4194 29.7942 32.4013 29.791C32.0873 29.7357 31.6118 29.6711 31.0165 29.6465ZM59.5702 4.24316C60.6159 5.46973 61.73 6.96583 62.6855 8.68164C64.0919 11.2072 65.2061 14.2904 65.1864 17.7217C65.1721 20.2117 64.561 22.7948 63.1474 25.3857H63.1552L49.0185 50.248L49.0634 50.2383C49.0667 50.2521 49.0742 50.2796 49.0849 50.3193C49.1066 50.3999 49.1431 50.5315 49.1991 50.7021C49.3117 51.0445 49.4982 51.5414 49.7812 52.1182C50.351 53.2798 51.2863 54.7077 52.7577 55.873C55.4969 58.0423 60.7627 59.7998 70.7675 55.4619L86.8622 27.168C92.6621 16.9718 85.4193 4.24331 73.8183 4.24316H59.5702ZM46.5487 46.1025L55.9159 29.6289H37.1825L46.5487 46.1025ZM18.8564 4.26172C18.593 4.27984 18.2176 4.31439 17.7577 4.38086C16.8341 4.51436 15.5852 4.77387 14.2148 5.27051C11.4758 6.26317 8.33059 8.17143 6.22256 11.8779C3.76107 16.211 3.3474 21.7189 5.95987 26.6875L6.22256 27.166L13.0263 39.1289C16.1941 31.4936 20.7364 27.8877 24.9716 26.3623C26.8139 25.6989 28.5325 25.4548 29.954 25.4053L29.9433 25.3857H58.1444C60.2534 22.621 60.9933 20.0263 61.0067 17.6973C61.021 15.2194 60.2146 12.8657 59.0468 10.7686C57.8794 8.67242 56.3971 6.91706 55.1864 5.6748C54.5853 5.05802 54.0606 4.57742 53.6923 4.25586C53.6874 4.25158 53.6825 4.24738 53.6776 4.24316H19.2665C19.2571 4.24326 19.112 4.24415 18.8564 4.26172Z" fill="black"/>
<path d="M159.708 10.1392C166.062 10.1392 171.371 11.115 174.548 12.0908V17.0831L174.157 17.3801C170.395 16.3053 165.588 15.4284 159.986 15.4284C152.086 15.4284 146.888 17.0973 143.126 20.4207C138.89 24.1402 136.382 32.159 136.382 42.0304V44.3781C136.382 54.6455 138.89 63.1593 143.126 66.9636C146.596 70.1881 152.183 71.5599 158.635 71.5599C165.574 71.5599 171.649 70.0891 175.398 68.9153L175.788 69.2123V74.0066C172.123 75.2794 167.218 76.8492 158.245 76.8492C138.584 76.8492 130.781 65.309 130.781 42.8083C130.781 20.3076 140.604 10.1392 159.694 10.1392H159.708Z" fill="black"/>
<path d="M209.034 10.0403C224.738 10.0403 236.011 20.2087 236.011 43.6852C236.011 65.1959 226.187 76.9342 209.034 76.9342C191.881 76.9342 182.155 64.998 182.155 43.6852C182.155 20.2087 193.428 10.0403 209.034 10.0403ZM209.034 71.6591C222.913 71.6591 230.423 62.2685 230.423 45.8349V41.3376C230.423 24.2252 222.718 15.3296 209.034 15.3296C195.351 15.3296 187.743 24.2252 187.743 41.3376V45.8349C187.743 62.3675 195.254 71.6591 209.034 71.6591Z" fill="black"/>
<path d="M244.399 10.8181H251.241L276.197 50.0352C278.9 54.2355 283.233 61.9715 286.41 67.7416L286.898 67.6426C286.508 61.2785 286.132 51.803 286.132 47.6876V10.8181H291.524V76.1422H286.132L258.765 33.0077C256.159 28.9063 252.411 21.8634 249.903 17.3661H249.415C249.61 20.9866 249.903 29.8822 249.903 34.7755V76.1422H244.413V10.8181H244.399Z" fill="black"/>
<path d="M323.949 10.1394C329.926 10.1394 335.904 11.0162 339.081 11.6102V16.4045L338.788 16.8005C335.611 16.2065 329.341 15.3297 323.656 15.3297C310.837 15.3297 305.737 19.332 305.737 26.8699V28.0437C305.737 33.3189 307.66 36.1615 316.619 38.2122L326.833 40.7578C338.872 43.6853 342.829 49.3565 342.829 57.9692C342.829 69.3115 336.573 76.8494 319.03 76.8494C311.324 76.8494 304.678 75.9726 300.525 75.1806V70.1883L300.916 69.7923C306.211 70.8672 312.774 71.645 318.932 71.645C331.752 71.645 337.339 68.2225 337.339 58.7329V57.5591C337.339 51.789 335.319 48.1685 324.422 45.5239L314.306 43.0772C304.385 40.6306 300.233 36.3312 300.233 27.5205C300.233 17.55 306.503 10.1111 323.935 10.1111L323.949 10.1394Z" fill="black"/>
<path d="M347.567 10.8181H352.959L368.566 51.8879C369.527 54.4335 372.997 64.8 374.836 70.4711H375.226C377.149 64.8 380.619 54.4335 381.58 51.8879L397.186 10.8181H402.481L402.871 11.2141L378.11 76.1564H372.035L347.274 11.2141L347.567 10.8181Z" fill="black"/>
<path d="M415.704 10.8181V76.1422H410.312V10.8181H415.704Z" fill="black"/>
<path d="M451.877 10.1392C458.231 10.1392 463.54 11.115 466.717 12.0908V17.0831L466.327 17.3801C462.565 16.3053 457.757 15.4284 452.156 15.4284C444.255 15.4284 439.058 17.0973 435.296 20.4207C431.06 24.1402 428.552 32.159 428.552 42.0304V44.3781C428.552 54.6455 431.06 63.1593 435.296 66.9636C438.765 70.1881 444.353 71.5599 450.804 71.5599C457.744 71.5599 463.819 70.0891 467.567 68.9153L467.957 69.2123V74.0066C464.293 75.2794 459.388 76.8492 450.414 76.8492C430.753 76.8492 422.95 65.309 422.95 42.8083C422.95 20.3076 432.774 10.1392 451.863 10.1392H451.877Z" fill="black"/>
<path d="M525.909 16.0084H503.364V76.1564H497.971V16.0084H475.426V10.8181H525.923V16.0084H525.909Z" fill="black"/>
<path d="M584 75.7604L583.61 76.1564H578.315L570.805 57.1772H539.579L532.068 76.1564H526.676L526.383 75.7604L552.105 10.8181H558.278L584 75.7604ZM568.868 52.3829L562.416 36.0483C559.908 29.9812 557.595 23.2352 555.38 16.4892H554.99C552.774 23.2352 550.363 29.9812 547.855 36.0483L541.404 52.3829H568.868Z" fill="black"/>
</svg>
