<svg width="3578" height="739" viewBox="0 0 3578 739" fill="none" xmlns="http://www.w3.org/2000/svg">
<g clip-path="url(#clip0_834_26)">
<path fill-rule="evenodd" clip-rule="evenodd" d="M409.511 448.106H452.727V262.269L304.755 136.983L271.273 108.637L84.5154 266.756V534.71H368.206V448.112H409.511V448.106ZM216.012 404.807V324.861L270.321 278.872L324.99 325.16V404.807H216.012ZM43.2159 621.307H537.248V225.531L270.879 0L237.403 28.3461L0 229.351V621.307H43.2159ZM494.027 578.014H43.2159V249.446L270.879 56.6865L494.021 245.626V578.009L494.027 578.014ZM324.996 268.445V268.479L270.326 222.191L172.796 304.765V448.112H324.996V491.416H127.737V286.857L271.273 165.329L409.511 282.37V404.818H368.206V304.844L324.996 268.451V268.445Z" fill="#1A1C29"/>
</g>
<path d="M769.025 279.731H779.09C809.927 279.731 841.264 288.297 873.1 305.429C873.1 306.856 863.749 323.988 845.047 356.824L815.709 348.686C801.718 344.689 789.94 342.69 780.375 342.69H775.021C766.313 342.69 761.173 346.402 759.603 353.825C759.603 358.537 771.024 363.391 793.866 368.387C826.416 377.239 847.973 386.518 858.538 396.226C871.815 407.79 878.453 423.209 878.453 442.482C878.453 482.313 854.969 507.154 808 517.004C797.578 518.146 789.155 518.718 782.73 518.718H776.306C735.904 518.718 698.857 507.582 665.165 485.311V484.454C685.437 452.618 696.002 436.628 696.858 436.486H697.715C721.842 449.334 746.112 455.759 770.524 455.759H775.878C788.584 455.759 794.937 452.903 794.937 447.193C794.937 439.198 779.875 432.345 749.752 426.635C716.631 417.784 695.074 405.363 685.08 389.374C679.084 378.809 676.086 367.674 676.086 355.967C676.086 317.278 699.571 292.437 746.54 281.444C755.534 280.302 763.029 279.731 769.025 279.731Z" fill="#1A1C29"/>
<path d="M977.389 289.582V508.01H891.73V289.582H977.389ZM891.73 268.167V208.207H977.389V268.167H891.73Z" fill="#1A1C29"/>
<path d="M1226.65 508.01H1146.14V394.085C1146.14 372.813 1138.71 359.679 1123.86 354.682C1120.72 354.111 1118.15 353.825 1116.15 353.825H1111.02C1095.88 353.825 1085.89 362.677 1081.04 380.38C1080.46 382.521 1080.18 385.091 1080.18 388.089V508.01H998.803V289.582H1080.18V316.992C1099.59 293.579 1121.58 281.873 1146.14 281.873H1152.13C1187.39 281.873 1211.09 299.575 1223.23 334.981C1225.51 345.688 1226.65 355.396 1226.65 364.104V508.01Z" fill="#1A1C29"/>
<path d="M1327.73 402.651C1327.73 415.642 1329.16 425.778 1332.01 433.059C1337.15 445.051 1347.43 451.048 1362.85 451.048C1365.85 450.476 1368.7 450.191 1371.42 450.191C1389.69 446.622 1398.83 430.204 1398.83 400.937C1398.26 379.38 1396.26 367.103 1392.83 364.104C1392.83 356.824 1383.69 352.255 1365.42 350.399H1360.28C1356.14 350.399 1351 351.256 1344.86 352.969C1333.44 360.535 1327.73 374.812 1327.73 395.798V402.651ZM1338.01 513.578C1324.3 513.578 1310.6 511.008 1296.89 505.869C1256.92 485.739 1236.93 449.334 1236.93 396.655V394.085C1236.93 372.813 1241.79 353.683 1251.49 336.694C1272.48 304.715 1299.89 288.725 1333.73 288.725H1344.86C1362.99 288.725 1380.27 295.578 1396.69 309.283V208.207H1482.34L1482.13 508.01H1396.26V493.02H1395.4C1378.98 506.725 1359.85 513.578 1338.01 513.578Z" fill="#1A1C29"/>
<path d="M1590.27 289.582V508.01H1504.61V289.582H1590.27ZM1504.61 268.167V208.207H1590.27V268.167H1504.61Z" fill="#1A1C29"/>
<path d="M1727.11 278.875H1737.18C1778.44 278.875 1811.13 295.507 1835.26 328.77C1833.54 330.912 1814.13 344.474 1777.01 369.458C1765.3 353.754 1750.17 345.902 1731.61 345.902C1709.77 345.902 1694.35 358.323 1685.35 383.163L1684.5 393.228V400.937C1684.5 421.924 1695.7 437.199 1718.12 446.765C1722.26 447.764 1725.9 448.264 1729.04 448.264H1736.32C1750.45 448.264 1764.94 440.697 1779.79 425.564C1815.48 449.263 1834.54 462.254 1836.97 464.539C1818.55 487.809 1796.78 503.299 1771.65 511.008C1755.52 514.435 1740.96 516.148 1727.97 516.148C1679.43 516.148 1641.67 494.947 1614.69 452.547C1605.55 434.558 1600.98 416.784 1600.98 399.224V395.798C1600.98 357.252 1618.83 325.344 1654.52 300.075C1677.22 285.941 1701.41 278.875 1727.11 278.875Z" fill="#1A1C29"/>
<path d="M1953.89 278.018C1998.72 278.018 2034.98 297.434 2062.68 336.266C2073.53 355.824 2078.95 374.383 2078.95 391.943V403.936C2078.95 434.915 2064.96 463.182 2036.98 488.737C2012.28 508.724 1983.73 518.718 1951.32 518.718C1905.92 518.718 1869.95 499.873 1843.39 462.183C1831.4 443.196 1825.4 422.638 1825.4 400.509V397.083C1825.4 353.683 1846.53 319.134 1888.79 293.436C1908.92 283.157 1930.62 278.018 1953.89 278.018ZM1917.06 393.657V404.792C1917.06 430.918 1925.34 445.765 1941.9 449.334L1953.89 450.191C1969.03 450.191 1978.73 444.195 1983.02 432.203C1986.44 421.924 1988.16 410.503 1988.16 397.939C1988.16 363.676 1976.45 346.545 1953.04 346.545H1950.47C1936.62 346.545 1927.2 352.826 1922.2 365.389C1918.77 373.812 1917.06 383.235 1917.06 393.657Z" fill="#1A1C29"/>
<path d="M2227.57 508.01V394.085C2227.57 372.813 2220.15 359.679 2205.3 354.682C2202.16 354.111 2199.59 353.825 2197.59 353.825H2192.45C2184.46 353.825 2178.03 362.677 2173.18 380.38C2172.61 382.521 2172.32 385.091 2172.32 388.089V508.01H2090.95V289.582H2172.32V316.992C2184.6 293.579 2203.01 281.873 2227.57 281.873H2233.57C2260.26 281.873 2282.53 294.579 2300.38 319.99C2306.38 309.712 2317.65 299.433 2334.21 289.154C2342.78 284.3 2352.63 281.873 2363.77 281.873H2369.76C2405.03 281.873 2428.72 299.575 2440.86 334.981C2443.14 345.688 2444.29 355.396 2444.29 364.104V508.01H2363.77V394.085C2363.77 372.813 2356.34 359.679 2341.5 354.682C2338.35 354.111 2335.78 353.825 2333.79 353.825H2328.65C2320.65 353.825 2314.23 362.677 2309.37 380.38C2308.8 382.521 2308.52 385.091 2308.52 388.089V508.01H2227.57Z" fill="#1A1C29"/>
<path d="M2609.61 284.014C2623.31 284.014 2637.02 286.584 2650.72 291.723C2690.7 311.853 2710.68 344.689 2710.68 390.23V392.8C2710.68 414.072 2705.83 433.202 2696.12 450.191C2675.13 482.17 2647.72 498.16 2613.89 498.16H2602.75C2584.62 498.16 2567.35 491.307 2550.93 477.602V572.254H2465.27V470.749L2465.49 289.582H2551.36V304.572H2552.21C2568.63 290.867 2587.76 284.014 2609.61 284.014ZM2619.88 384.234C2619.88 378.381 2618.46 371.814 2615.6 364.533C2610.46 352.541 2600.18 346.545 2584.76 346.545C2581.77 347.116 2578.91 347.401 2576.2 347.401C2557.93 350.827 2548.79 363.676 2548.79 385.947C2549.36 407.505 2551.36 419.782 2554.78 422.78C2554.78 430.061 2563.92 434.63 2582.2 436.486H2587.33C2591.47 436.486 2596.61 435.629 2602.75 433.916C2614.17 426.349 2619.88 412.073 2619.88 391.087V384.234Z" fill="#1A1C29"/>
<path d="M2802.34 402.651C2802.34 415.642 2803.76 425.778 2806.62 433.059C2811.76 445.051 2822.04 451.048 2837.46 451.048C2840.45 450.476 2843.31 450.191 2846.02 450.191C2864.3 446.622 2873.43 430.204 2873.43 400.937C2872.86 379.38 2870.86 367.103 2867.44 364.104C2867.44 356.824 2858.3 352.255 2840.03 350.399H2834.89C2830.75 350.399 2825.61 351.256 2819.47 352.969C2808.05 360.535 2802.34 374.812 2802.34 395.798V402.651ZM2812.62 513.578C2798.91 513.578 2785.21 511.008 2771.5 505.869C2731.53 485.739 2711.54 449.334 2711.54 396.655V394.085C2711.54 372.813 2716.39 353.683 2726.1 336.694C2747.09 304.715 2774.5 288.725 2808.33 288.725H2819.47C2837.6 288.725 2854.87 295.578 2871.29 309.283V289.582H2956.95L2956.74 508.01H2870.86V493.02H2870.01C2853.59 506.725 2834.46 513.578 2812.62 513.578Z" fill="#1A1C29"/>
<path d="M3207.07 508.01H3126.55V394.085C3126.55 372.813 3119.13 359.679 3104.28 354.682C3101.14 354.111 3098.57 353.825 3096.57 353.825H3091.43C3076.3 353.825 3066.31 362.677 3061.45 380.38C3060.88 382.521 3060.6 385.091 3060.6 388.089V508.01H2979.22V289.582H3060.6V316.992C3080.01 293.579 3102 281.873 3126.55 281.873H3132.55C3167.81 281.873 3191.51 299.575 3203.65 334.981C3205.93 345.688 3207.07 355.396 3207.07 364.104V508.01Z" fill="#1A1C29"/>
<path d="M3286.95 504.37L3197.65 289.582H3292.73L3326.14 400.937L3361.26 289.582H3454.62L3388.67 470.749C3369.54 523.714 3338.2 559.12 3294.66 576.965C3279.1 582.39 3264.75 585.816 3251.61 587.244H3229.77V528.354C3253.47 526.784 3269.03 522.572 3276.45 515.719C3280.45 512.008 3283.95 508.224 3286.95 504.37Z" fill="#1A1C29"/>
<path d="M3526.05 319.553V329.879H3531.69C3535.62 329.879 3537.86 329.42 3538.41 328.502C3539.08 327.459 3539.42 326.353 3539.42 325.185C3539.42 321.43 3536.97 319.553 3532.07 319.553H3526.05ZM3551.58 351.97C3554.2 349.008 3556.44 345.253 3558.3 340.705C3559.19 337.117 3559.63 333.967 3559.63 331.256V329.691C3559.63 318.26 3554.05 309.394 3542.9 303.094C3538.85 301.133 3534.58 300.153 3530.11 300.153C3518.71 300.153 3510.17 305.66 3504.52 316.674C3502.53 320.512 3501.54 325.164 3501.54 330.63V330.943C3501.54 341.498 3506.14 350.051 3515.35 356.601C3519.87 359.396 3524.55 360.794 3529.41 360.794H3532.07C3539.8 360.794 3546.2 357.999 3551.27 352.408H3537.65C3535.62 351.156 3532.07 347.026 3527 340.017H3526.05V352.408H3514.02V309.477H3534.1C3541.19 309.477 3545.99 311.522 3548.48 315.61C3550.38 317.988 3551.33 320.888 3551.33 324.309V325.06C3551.33 332.027 3547.59 336.721 3540.12 339.141C3545.57 346.025 3549.39 350.301 3551.58 351.97ZM3530.49 376.439C3517.35 376.439 3506.14 371.975 3496.85 363.047C3487.6 354.119 3482.98 343.355 3482.98 330.755C3482.98 318.155 3487.6 307.391 3496.85 298.463C3506.14 289.535 3517.35 285.071 3530.49 285.071C3543.62 285.071 3554.81 289.535 3564.06 298.463C3573.35 307.391 3578 318.155 3578 330.755C3578 343.355 3573.35 354.119 3564.06 363.047C3554.81 371.975 3543.62 376.439 3530.49 376.439Z" fill="#1A1C29"/>
<path d="M654.2 621.307C654.2 685.898 601.839 738.259 537.248 738.259C472.657 738.259 420.296 685.898 420.296 621.307C420.296 556.717 472.657 504.355 537.248 504.355C601.839 504.355 654.2 556.717 654.2 621.307Z" fill="#1A1C29"/>
<defs>
<clipPath id="clip0_834_26">
<rect width="537.248" height="621.307" fill="white"/>
</clipPath>
</defs>
</svg>
